<svg width="1440" height="600" viewBox="0 0 1440 600" version="1.1" xmlns="http://www.w3.org/2000/svg" xmlns:xlink="http://www.w3.org/1999/xlink">
<title>3</title>
<desc>Created using Figma</desc>
<g id="Canvas" transform="translate(485 -379)">
<clipPath id="clip-0" clip-rule="evenodd">
<path d="M -485 379L 955 379L 955 979L -485 979L -485 379Z" fill="#FFFFFF"/>
</clipPath>
<g id="3" clip-path="url(#clip-0)">
<path d="M -485 379L 955 379L 955 979L -485 979L -485 379Z" fill="#FFFFFF"/>
<clipPath id="clip-1" clip-rule="evenodd">
<path d="M -505 378L 958 378L 958 993L -505 993L -505 378Z" fill="#FFFFFF"/>
</clipPath>
<g id="3" clip-path="url(#clip-1)">
<path d="M -505 378L 958 378L 958 993L -505 993L -505 378Z" fill="#003585"/>
</g>
<g id="Moon" filter="url(#filter0_d)">
<g id="Ellipse 2">
<use xlink:href="#path0_fill" transform="translate(-256 578)" fill="#828282"/>
</g>
<g id="Ellipse 2.1" filter="url(#filter1_d)">
<use xlink:href="#path1_fill" transform="translate(-228 644)" fill="#999999"/>
</g>
<g id="Ellipse 2.2" filter="url(#filter2_d)">
<use xlink:href="#path2_fill" transform="matrix(0.999173 0.040667 -0.040667 0.999173 -231.495 602.586)" fill="#999999"/>
</g>
<g id="Ellipse 2.4" filter="url(#filter3_d)">
<use xlink:href="#path3_fill" transform="matrix(0.999173 0.040667 -0.040667 0.999173 -178.359 620)" fill="#999999"/>
</g>
<g id="Ellipse 2.3" filter="url(#filter4_d)">
<use xlink:href="#path2_fill" transform="matrix(0.999173 0.040667 -0.040667 0.999173 -201.495 581)" fill="#999999"/>
</g>
</g>
<g id="Group" filter="url(#filter5_d)">
<g id="Group 2.1">
<g id="Star">
<use xlink:href="#path4_fill" transform="matrix(-0.645127 0.764075 -0.764075 -0.645127 -107.231 789.674)" fill="#C4C4C4"/>
</g>
<g id="Star">
<use xlink:href="#path5_fill" transform="matrix(-0.0379563 0.999279 -0.999279 -0.0379563 -175.476 735.151)" fill="#C4C4C4"/>
</g>
<g id="Star">
<use xlink:href="#path6_fill" transform="matrix(-0.645127 0.764075 -0.764075 -0.645127 -136.784 842.184)" fill="#C4C4C4"/>
</g>
<g id="Star">
<use xlink:href="#path7_fill" transform="matrix(-0.960414 -0.278576 0.278576 -0.960414 -108.027 738.908)" fill="#DBDBDB"/>
</g>
<g id="Star">
<use xlink:href="#path8_fill" transform="matrix(0.321386 0.946948 -0.946948 0.321386 -219.766 800.43)" fill="#FFFFFF"/>
</g>
</g>
<g id="Group 2.3">
<g id="Star">
<use xlink:href="#path4_fill" transform="matrix(-0.931866 0.362804 -0.362804 -0.931866 139.398 547.532)" fill="#C4C4C4"/>
</g>
<g id="Star">
<use xlink:href="#path5_fill" transform="matrix(-0.510956 0.859607 -0.859607 -0.510956 105.512 467.022)" fill="#C4C4C4"/>
</g>
<g id="Star">
<use xlink:href="#path6_fill" transform="matrix(-0.931866 0.362804 -0.362804 -0.931866 88.3406 579.531)" fill="#C4C4C4"/>
</g>
<g id="Star">
<use xlink:href="#path7_fill" transform="matrix(-0.710461 -0.703736 0.703736 -0.710461 162.962 502.56)" fill="#DBDBDB"/>
</g>
<g id="Star">
<use xlink:href="#path8_fill" transform="matrix(-0.170304 0.985392 -0.985392 -0.170304 35.4072 503.193)" fill="#FFFFFF"/>
</g>
</g>
<g id="Group 2.4">
<g id="Star">
<use xlink:href="#path9_fill" transform="matrix(-0.999933 0.0116204 -0.131756 0.991282 135.419 679.704)" fill="#C4C4C4"/>
</g>
<g id="Star">
<use xlink:href="#path10_fill" transform="matrix(-0.858107 -0.513471 -0.76773 0.640774 123.267 751.049)" fill="#C4C4C4"/>
</g>
<g id="Star">
<use xlink:href="#path11_fill" transform="matrix(-0.999933 0.0116204 -0.131756 0.991282 69.8079 671.256)" fill="#C4C4C4"/>
</g>
<g id="Star">
<use xlink:href="#path12_fill" transform="matrix(-0.596501 0.802612 0.95124 0.308453 175.018 706.447)" fill="#DBDBDB"/>
</g>
<g id="Star">
<use xlink:href="#path13_fill" transform="matrix(-0.577449 -0.816427 -0.920986 0.389595 35.5747 745.323)" fill="#FFFFFF"/>
</g>
</g>
<g id="Group 2.2">
<g id="Star">
<use xlink:href="#path4_fill" transform="matrix(-0.645127 0.764075 -0.764075 -0.645127 -291.233 535.674)" fill="#C4C4C4"/>
</g>
<g id="Star">
<use xlink:href="#path8_fill" transform="matrix(0.321386 0.946948 -0.946948 0.321386 -403.768 546.43)" fill="#FFFFFF"/>
</g>
<g id="Group 2.1">
<g id="Star">
<use xlink:href="#path4_fill" transform="matrix(-0.645127 0.764075 -0.764075 -0.645127 472.101 847.103)" fill="#C4C4C4"/>
</g>
<g id="Star">
<use xlink:href="#path5_fill" transform="matrix(-0.0379563 0.999279 -0.999279 -0.0379563 406.75 427.577)" fill="#C4C4C4"/>
</g>
<g id="Star">
<use xlink:href="#path6_fill" transform="matrix(-0.645127 0.764075 -0.764075 -0.645127 445.442 534.611)" fill="#C4C4C4"/>
</g>
<g id="Star">
<use xlink:href="#path7_fill" transform="matrix(-0.960414 -0.278576 0.278576 -0.960414 474.199 431.334)" fill="#DBDBDB"/>
</g>
<g id="Star">
<use xlink:href="#path4_fill" transform="matrix(-0.645127 0.764075 -0.764075 -0.645127 740.105 642.104)" fill="#C4C4C4"/>
</g>
<g id="Star">
<use xlink:href="#path5_fill" transform="matrix(-0.0379563 0.999279 -0.999279 -0.0379563 671.859 587.581)" fill="#C4C4C4"/>
</g>
<g id="Star">
<use xlink:href="#path6_fill" transform="matrix(-0.645127 0.764075 -0.764075 -0.645127 280.371 631.188)" fill="#C4C4C4"/>
</g>
<g id="Star">
<use xlink:href="#path7_fill" transform="matrix(-0.960414 -0.278576 0.278576 -0.960414 309.127 527.912)" fill="#DBDBDB"/>
</g>
<g id="Star">
<use xlink:href="#path4_fill" transform="matrix(-0.645127 0.764075 -0.764075 -0.645127 575.033 738.682)" fill="#C4C4C4"/>
</g>
<g id="Star">
<use xlink:href="#path5_fill" transform="matrix(-0.0379563 0.999279 -0.999279 -0.0379563 506.787 684.159)" fill="#C4C4C4"/>
</g>
<g id="Star">
<use xlink:href="#path6_fill" transform="matrix(-0.645127 0.764075 -0.764075 -0.645127 545.48 791.192)" fill="#C4C4C4"/>
</g>
<g id="Star">
<use xlink:href="#path7_fill" transform="matrix(-0.785142 0.619316 -0.619316 -0.785142 0.30603 936.815)" fill="#DBDBDB"/>
</g>
<g id="Star">
<use xlink:href="#path4_fill" transform="matrix(0.246428 0.969161 -0.969161 0.246428 326.404 843.065)" fill="#C4C4C4"/>
</g>
<g id="Star">
<use xlink:href="#path5_fill" transform="matrix(0.790863 0.611994 -0.611994 0.790863 242.361 866.877)" fill="#C4C4C4"/>
</g>
<g id="Star">
<use xlink:href="#path6_fill" transform="matrix(0.246428 0.969161 -0.969161 0.246428 351.937 897.644)" fill="#C4C4C4"/>
</g>
<g id="Star">
<use xlink:href="#path7_fill" transform="matrix(-0.960414 -0.278576 0.278576 -0.960414 -95.9197 915.911)" fill="#DBDBDB"/>
</g>
<g id="Star">
<use xlink:href="#path8_fill" transform="matrix(0.321386 0.946948 -0.946948 0.321386 -472.767 817.429)" fill="#FFFFFF"/>
</g>
</g>
</g>
</g>
<g id="Ellipse">
<g filter="url(#filter6_i)">
<use xlink:href="#path14_fill" transform="matrix(1 0 0 -1 676.478 565.486)" fill="#F2C94C"/>
</g>
<mask id="mask0_outline_ins">
<use xlink:href="#path14_fill" fill="white" transform="matrix(1 0 0 -1 676.478 565.486)"/>
</mask>
<g mask="url(#mask0_outline_ins)">
<use xlink:href="#path15_stroke_2x" transform="matrix(1 0 0 -1 676.478 565.486)" fill="#FF0000"/>
</g>
</g>
<g id="Rocket" filter="url(#filter7_d)">
<g id="Polygon 2">
<use xlink:href="#path16_fill" transform="matrix(-0.321208 -0.947009 -0.984791 0.173741 -14.5097 769.214)" fill="#FF0000"/>
</g>
<g id="Polygon 2.1">
<use xlink:href="#path17_fill" transform="matrix(0.889581 0.456777 -0.535001 0.844852 -18.8914 768.878)" fill="#FF0000"/>
</g>
<g id="Group 2">
<g id="Polygon">
<use xlink:href="#path18_fill" transform="matrix(0.671681 0.740841 -0.846304 0.532701 33.2395 718.363)" fill="#C4C4C4"/>
</g>
<g id="Polygon 2" filter="url(#filter8_d)">
<use xlink:href="#path19_fill" transform="matrix(-0.671681 -0.740841 0.846304 -0.532701 -67.3629 814.295)" fill="#FFE600"/>
</g>
<g id="Polygon 3">
<use xlink:href="#path20_fill" transform="matrix(0.671681 0.740841 0.846304 -0.532701 -62.0035 793.22)" fill="#F2994A"/>
</g>
<g id="Rectangle">
<use xlink:href="#path21_fill" transform="matrix(0.671681 0.740841 -0.846304 0.532701 5.64562 738.527)" fill="#C4C4C4"/>
</g>
<g id="Rectangle 2">
<use xlink:href="#path22_fill" transform="matrix(0.671681 0.740841 -0.846304 0.532701 14.9179 742.007)" fill="#56CCF2"/>
</g>
</g>
</g>
<g id="Rectangle">
<use xlink:href="#path23_fill" transform="translate(-245 814)" fill="#27AE60"/>
</g>
<g id="Rectangle">
<use xlink:href="#path24_fill" transform="translate(-250 801)" fill="#27AE60"/>
</g>
<g id="Star">
<use xlink:href="#path5_fill" transform="matrix(0.766493 0.642253 -0.642253 0.766493 -389.302 812.486)" fill="#C4C4C4"/>
</g>
<g id="Star">
<use xlink:href="#path6_fill" transform="matrix(0.208595 0.978002 -0.978002 0.208595 -281.005 847.486)" fill="#C4C4C4"/>
</g>
<g id="Star">
<use xlink:href="#path7_fill" transform="matrix(-0.808607 0.58835 -0.58835 -0.808607 -345.007 761.483)" fill="#DBDBDB"/>
</g>
<g id="Star">
<use xlink:href="#path8_fill" transform="matrix(0.945303 0.326195 -0.326195 0.945303 -364.847 887.486)" fill="#FFFFFF"/>
</g>
<g id="Earth" filter="url(#filter9_d)">
<g id="Ellipse 3">
<use xlink:href="#path25_fill" transform="translate(-431.522 636.486)" fill="#147AD9"/>
</g>
<g id="Group 2" filter="url(#filter10_d)">
<g id="Rectangle">
<use xlink:href="#path26_fill" transform="translate(-347.522 646.486)" fill="#E3E3E3"/>
</g>
<g id="Rectangle">
<use xlink:href="#path27_fill" transform="translate(-330.522 636.486)" fill="#E3E3E3"/>
</g>
</g>
<g id="Group 2.1" filter="url(#filter11_d)">
<g id="Rectangle">
<use xlink:href="#path26_fill" transform="matrix(-0.999999 -0.00152019 0.00152019 -0.999999 -229.507 884.664)" fill="#E3E3E3"/>
</g>
<g id="Rectangle">
<use xlink:href="#path27_fill" transform="matrix(-0.999999 -0.00152019 0.00152019 -0.999999 -246.522 894.638)" fill="#E3E3E3"/>
</g>
</g>
<g id="Group" filter="url(#filter12_d)">
<g id="Rectangle 3">
<use xlink:href="#path28_fill" transform="translate(-378.522 686.486)" fill="#6FCF97"/>
</g>
<g id="Rectangle 3.1">
<use xlink:href="#path28_fill" transform="translate(-361.522 719.486)" fill="#6FCF97"/>
</g>
<g id="Rectangle 3.2">
<use xlink:href="#path29_fill" transform="translate(-400.522 756.486)" fill="#6FCF97"/>
</g>
<g id="Rectangle 3.4">
<use xlink:href="#path29_fill" transform="matrix(0.972604 -0.232468 0.232468 0.972604 -412.522 728.759)" fill="#6FCF97"/>
</g>
<g id="Rectangle 3.3">
<use xlink:href="#path30_fill" transform="translate(-359.522 702.486)" fill="#6FCF97"/>
</g>
<g id="Rectangle 3">
<use xlink:href="#path31_fill" transform="matrix(0.119997 0.992774 -0.992774 0.119997 -324.73 748.62)" fill="#27AE60"/>
</g>
<g id="Rectangle 3">
<use xlink:href="#path32_fill" transform="matrix(0.993831 -0.110908 0.110908 0.993831 -402.068 731.689)" fill="#27AE60"/>
</g>
<g id="Rectangle 4">
<use xlink:href="#path33_fill" transform="translate(-406.522 712.486)" fill="#27AE60"/>
</g>
<g id="Rectangle 2">
<use xlink:href="#path34_fill" transform="matrix(0.981741 0.190222 -0.190222 0.981741 -385.361 695.975)" fill="#27AE60"/>
</g>
</g>
<g id="Group" filter="url(#filter13_d)">
<g id="Rectangle 3">
<use xlink:href="#path35_fill" transform="matrix(0.89755 -0.440913 0.440913 0.89755 -264.56 677.818)" fill="#6FCF97"/>
</g>
<g id="Rectangle 3.1">
<use xlink:href="#path35_fill" transform="matrix(0.89755 -0.440913 0.440913 0.89755 -249.025 691.802)" fill="#6FCF97"/>
</g>
<g id="Rectangle 3.2">
<use xlink:href="#path36_fill" transform="matrix(0.89755 -0.440913 0.440913 0.89755 -255.448 719.195)" fill="#6FCF97"/>
</g>
<g id="Rectangle 3.4">
<use xlink:href="#path37_fill" transform="matrix(0.728529 -0.685015 0.597604 0.801792 -267.564 706.984)" fill="#6FCF97"/>
</g>
<g id="Rectangle 3.3">
<use xlink:href="#path38_fill" transform="matrix(0.89755 -0.440913 0.440913 0.89755 -252.61 682.428)" fill="#6FCF97"/>
</g>
<g id="Rectangle 3">
<use xlink:href="#path39_fill" transform="matrix(0.523026 0.852317 -0.81924 0.573451 -226.364 699.755)" fill="#27AE60"/>
</g>
<g id="Rectangle 3">
<use xlink:href="#path40_fill" transform="matrix(0.825869 -0.563862 0.516912 0.856039 -262.511 706.421)" fill="#27AE60"/>
</g>
<g id="Rectangle 4">
<use xlink:href="#path41_fill" transform="matrix(0.89755 -0.440913 0.440913 0.89755 -269.318 697.186)" fill="#27AE60"/>
</g>
<g id="Rectangle 2">
<use xlink:href="#path42_fill" transform="matrix(0.977489 -0.210985 0.302168 0.953255 -264.909 684.204)" fill="#27AE60"/>
</g>
</g>
<g id="Group" filter="url(#filter14_d)">
<g id="Rectangle 3">
<use xlink:href="#path43_fill" transform="matrix(0.89755 -0.440913 0.440913 0.89755 -270.171 803.051)" fill="#6FCF97"/>
</g>
<g id="Rectangle 3.1">
<use xlink:href="#path43_fill" transform="matrix(0.89755 -0.440913 0.440913 0.89755 -251.856 805.776)" fill="#6FCF97"/>
</g>
<g id="Rectangle 3.2">
<use xlink:href="#path44_fill" transform="matrix(0.89755 -0.440913 0.440913 0.89755 -278.028 831.776)" fill="#6FCF97"/>
</g>
<g id="Rectangle 3.4">
<use xlink:href="#path45_fill" transform="matrix(0.856968 -0.51537 0.866539 0.499109 -291.579 828.584)" fill="#6FCF97"/>
</g>
<g id="Rectangle 3.3">
<use xlink:href="#path46_fill" transform="matrix(0.89755 -0.440913 0.440913 0.89755 -252.637 800.121)" fill="#6FCF97"/>
</g>
<g id="Rectangle 3">
<use xlink:href="#path47_fill" transform="matrix(0.706224 0.707988 -0.87778 0.479064 -218.164 799.574)" fill="#27AE60"/>
</g>
<g id="Rectangle 3">
<use xlink:href="#path48_fill" transform="matrix(0.879353 -0.47617 0.689355 0.724424 -282.758 825.291)" fill="#27AE60"/>
</g>
<g id="Rectangle 4">
<use xlink:href="#path49_fill" transform="matrix(0.89755 -0.440913 0.440913 0.89755 -289.04 821.556)" fill="#27AE60"/>
</g>
<g id="Rectangle 2">
<use xlink:href="#path50_fill" transform="matrix(0.925744 -0.37815 -0.0421147 0.999113 -274.339 808.468)" fill="#27AE60"/>
</g>
</g>
<g id="Group" filter="url(#filter15_d)">
<g id="Rectangle 3">
<use xlink:href="#path51_fill" transform="matrix(0.89755 -0.440913 0.440913 0.89755 -237.614 786.778)" fill="#6FCF97"/>
</g>
<g id="Rectangle 3.1">
<use xlink:href="#path51_fill" transform="matrix(0.89755 -0.440913 0.440913 0.89755 -222.956 801.571)" fill="#6FCF97"/>
</g>
<g id="Rectangle 3.2">
<use xlink:href="#path52_fill" transform="matrix(0.89755 -0.440913 0.440913 0.89755 -226.857 828.146)" fill="#6FCF97"/>
</g>
<g id="Rectangle 3.4">
<use xlink:href="#path53_fill" transform="matrix(0.691071 -0.722787 0.573924 0.818908 -238.373 815.324)" fill="#6FCF97"/>
</g>
<g id="Rectangle 3.3">
<use xlink:href="#path54_fill" transform="matrix(0.89755 -0.440913 0.440913 0.89755 -226.739 792.1)" fill="#6FCF97"/>
</g>
<g id="Rectangle 3">
<use xlink:href="#path55_fill" transform="matrix(0.5101 0.860115 -0.802199 0.597056 -202.386 810.883)" fill="#27AE60"/>
</g>
<g id="Rectangle 3">
<use xlink:href="#path56_fill" transform="matrix(0.810349 -0.585947 0.504918 0.863168 -233.939 815.098)" fill="#27AE60"/>
</g>
<g id="Rectangle 4">
<use xlink:href="#path57_fill" transform="matrix(0.89755 -0.440913 0.440913 0.89755 -240.563 805.555)" fill="#27AE60"/>
</g>
<g id="Rectangle 2">
<use xlink:href="#path58_fill" transform="matrix(0.985939 -0.167103 0.324881 0.945755 -237.507 793.049)" fill="#27AE60"/>
</g>
</g>
</g>
<g id="Group 2.1">
<g id="Star">
<use xlink:href="#path4_fill" transform="matrix(-0.965378 0.260857 -0.260857 -0.965378 -178.147 387.184)" fill="#C4C4C4"/>
</g>
<g id="Star">
<use xlink:href="#path6_fill" transform="matrix(-0.965378 0.260857 -0.260857 -0.965378 -232.339 413.527)" fill="#C4C4C4"/>
</g>
</g>
<g id="Group 3">
<g id="Rectangle 3.1">
<use xlink:href="#path51_fill" transform="matrix(0.127353 0.991857 -0.991857 0.127353 -235.24 827.253)" fill="#6FCF97"/>
</g>
<g id="Rectangle 3.2">
<use xlink:href="#path52_fill" transform="matrix(0.127353 0.991857 -0.991857 0.127353 -259.131 814.977)" fill="#6FCF97"/>
</g>
<g id="Rectangle 3.4">
<use xlink:href="#path53_fill" transform="matrix(0.460812 0.887498 -0.960397 0.278636 -243.276 808.22)" fill="#6FCF97"/>
</g>
<g id="Rectangle 3.3">
<use xlink:href="#path54_fill" transform="matrix(0.127353 0.991857 -0.991857 0.127353 -225.054 826.732)" fill="#6FCF97"/>
</g>
<g id="Rectangle 3">
<use xlink:href="#path55_fill" transform="matrix(-0.978778 0.204922 -0.305925 -0.952056 -250.697 843.712)" fill="#27AE60"/>
</g>
<g id="Rectangle 3">
<use xlink:href="#path56_fill" transform="matrix(0.292779 0.95618 -0.979993 0.199032 -244.494 812.49)" fill="#27AE60"/>
</g>
<g id="Rectangle 3">
<use xlink:href="#path51_fill" transform="matrix(0.127353 0.991857 -0.991857 0.127353 -216.505 818.159)" fill="#6FCF97"/>
</g>
<g id="Rectangle 4">
<use xlink:href="#path57_fill" transform="matrix(0.127353 0.991857 -0.991857 0.127353 -233.323 809.303)" fill="#27AE60"/>
</g>
<g id="Rectangle 2">
<use xlink:href="#path58_fill" transform="matrix(-0.160331 0.987063 -0.999998 0.00196921 -222.475 816.235)" fill="#27AE60"/>
</g>
</g>
<g id="Rectangle 2">
<use xlink:href="#path59_fill" transform="matrix(0.971177 -0.23836 0.23836 0.971177 -272 822.912)" fill="#219653"/>
</g>
<g id="Rectangle 3">
<use xlink:href="#path60_fill" transform="matrix(-0.971454 0.237229 -0.237229 -0.971454 -348.289 738.543)" fill="#219653"/>
</g>
<g id="Star">
<use xlink:href="#path6_fill" transform="matrix(-0.645127 0.764075 -0.764075 -0.645127 775.541 914.61)" fill="#C4C4C4"/>
</g>
<g id="Star">
<use xlink:href="#path7_fill" transform="matrix(-0.960414 -0.278576 0.278576 -0.960414 804.297 811.334)" fill="#DBDBDB"/>
</g>
</g>
</g>
<defs>
<filter id="filter0_d" filterUnits="userSpaceOnUse" x="-260" y="578" width="123" height="107" color-interpolation-filters="sRGB">
<feFlood flood-opacity="0" result="BackgroundImageFix"/>
<feColorMatrix in="SourceAlpha" type="matrix" values="0 0 0 0 0 0 0 0 0 0 0 0 0 0 0 0 0 0 255 0"/>
<feOffset dx="0" dy="4"/>
<feGaussianBlur stdDeviation="2"/>
<feColorMatrix type="matrix" values="0 0 0 0 0 0 0 0 0 0 0 0 0 0 0 0 0 0 0.25 0"/>
<feBlend mode="normal" in2="BackgroundImageFix" result="effect1_dropShadow"/>
<feBlend mode="normal" in="SourceGraphic" in2="effect1_dropShadow" result="shape"/>
</filter>
<filter id="filter1_d" filterUnits="userSpaceOnUse" x="-232" y="644" width="55" height="25" color-interpolation-filters="sRGB">
<feFlood flood-opacity="0" result="BackgroundImageFix"/>
<feColorMatrix in="SourceAlpha" type="matrix" values="0 0 0 0 0 0 0 0 0 0 0 0 0 0 0 0 0 0 255 0"/>
<feOffset dx="0" dy="4"/>
<feGaussianBlur stdDeviation="2"/>
<feColorMatrix type="matrix" values="0 0 0 0 0 0 0 0 0 0 0 0 0 0 0 0 0 0 0.25 0"/>
<feBlend mode="normal" in2="BackgroundImageFix" result="effect1_dropShadow"/>
<feBlend mode="normal" in="SourceGraphic" in2="effect1_dropShadow" result="shape"/>
</filter>
<filter id="filter2_d" filterUnits="userSpaceOnUse" x="-236" y="603" width="43" height="21" color-interpolation-filters="sRGB">
<feFlood flood-opacity="0" result="BackgroundImageFix"/>
<feColorMatrix in="SourceAlpha" type="matrix" values="0 0 0 0 0 0 0 0 0 0 0 0 0 0 0 0 0 0 255 0"/>
<feOffset dx="0" dy="4"/>
<feGaussianBlur stdDeviation="2"/>
<feColorMatrix type="matrix" values="0 0 0 0 0 0 0 0 0 0 0 0 0 0 0 0 0 0 0.25 0"/>
<feBlend mode="normal" in2="BackgroundImageFix" result="effect1_dropShadow"/>
<feBlend mode="normal" in="SourceGraphic" in2="effect1_dropShadow" result="shape"/>
</filter>
<filter id="filter3_d" filterUnits="userSpaceOnUse" x="-183" y="620" width="40" height="25" color-interpolation-filters="sRGB">
<feFlood flood-opacity="0" result="BackgroundImageFix"/>
<feColorMatrix in="SourceAlpha" type="matrix" values="0 0 0 0 0 0 0 0 0 0 0 0 0 0 0 0 0 0 255 0"/>
<feOffset dx="0" dy="4"/>
<feGaussianBlur stdDeviation="2"/>
<feColorMatrix type="matrix" values="0 0 0 0 0 0 0 0 0 0 0 0 0 0 0 0 0 0 0.25 0"/>
<feBlend mode="normal" in2="BackgroundImageFix" result="effect1_dropShadow"/>
<feBlend mode="normal" in="SourceGraphic" in2="effect1_dropShadow" result="shape"/>
</filter>
<filter id="filter4_d" filterUnits="userSpaceOnUse" x="-206" y="581" width="43" height="22" color-interpolation-filters="sRGB">
<feFlood flood-opacity="0" result="BackgroundImageFix"/>
<feColorMatrix in="SourceAlpha" type="matrix" values="0 0 0 0 0 0 0 0 0 0 0 0 0 0 0 0 0 0 255 0"/>
<feOffset dx="0" dy="4"/>
<feGaussianBlur stdDeviation="2"/>
<feColorMatrix type="matrix" values="0 0 0 0 0 0 0 0 0 0 0 0 0 0 0 0 0 0 0.25 0"/>
<feBlend mode="normal" in2="BackgroundImageFix" result="effect1_dropShadow"/>
<feBlend mode="normal" in="SourceGraphic" in2="effect1_dropShadow" result="shape"/>
</filter>
<filter id="filter5_d" filterUnits="userSpaceOnUse" x="-486" y="417" width="1227" height="625" color-interpolation-filters="sRGB">
<feFlood flood-opacity="0" result="BackgroundImageFix"/>
<feColorMatrix in="SourceAlpha" type="matrix" values="0 0 0 0 0 0 0 0 0 0 0 0 0 0 0 0 0 0 255 0"/>
<feOffset dx="0" dy="4"/>
<feGaussianBlur stdDeviation="2"/>
<feColorMatrix type="matrix" values="0 0 0 0 0 0 0 0 0 0 0 0 0 0 0 0 0 0 0.25 0"/>
<feBlend mode="normal" in2="BackgroundImageFix" result="effect1_dropShadow"/>
<feBlend mode="normal" in="SourceGraphic" in2="effect1_dropShadow" result="shape"/>
</filter>
<filter id="filter6_i" filterUnits="userSpaceOnUse" x="676" y="44" width="645" height="526" color-interpolation-filters="sRGB">
<feFlood flood-opacity="0" result="BackgroundImageFix"/>
<feBlend mode="normal" in="SourceGraphic" in2="BackgroundImageFix" result="shape"/>
<feColorMatrix in="SourceAlpha" type="matrix" values="0 0 0 0 0 0 0 0 0 0 0 0 0 0 0 0 0 0 255 0" result="hardAlpha"/>
<feOffset dx="0" dy="4"/>
<feGaussianBlur stdDeviation="2"/>
<feComposite in2="hardAlpha" operator="arithmetic" k2="-1" k3="1"/>
<feColorMatrix type="matrix" values="0 0 0 0 0 0 0 0 0 0 0 0 0 0 0 0 0 0 0.25 0"/>
<feBlend mode="normal" in2="shape" result="effect1_innerShadow"/>
</filter>
<filter id="filter7_d" filterUnits="userSpaceOnUse" x="-79" y="730" width="128" height="84" color-interpolation-filters="sRGB">
<feFlood flood-opacity="0" result="BackgroundImageFix"/>
<feColorMatrix in="SourceAlpha" type="matrix" values="0 0 0 0 0 0 0 0 0 0 0 0 0 0 0 0 0 0 255 0"/>
<feOffset dx="0" dy="4"/>
<feGaussianBlur stdDeviation="2"/>
<feColorMatrix type="matrix" values="0 0 0 0 0 0 0 0 0 0 0 0 0 0 0 0 0 0 0.25 0"/>
<feBlend mode="normal" in2="BackgroundImageFix" result="effect1_dropShadow"/>
<feBlend mode="normal" in="SourceGraphic" in2="effect1_dropShadow" result="shape"/>
</filter>
<filter id="filter8_d" filterUnits="userSpaceOnUse" x="-79" y="777" width="48" height="37" color-interpolation-filters="sRGB">
<feFlood flood-opacity="0" result="BackgroundImageFix"/>
<feColorMatrix in="SourceAlpha" type="matrix" values="0 0 0 0 0 0 0 0 0 0 0 0 0 0 0 0 0 0 255 0"/>
<feOffset dx="0" dy="4"/>
<feGaussianBlur stdDeviation="2"/>
<feColorMatrix type="matrix" values="0 0 0 0 0 0 0 0 0 0 0 0 0 0 0 0 0 0 0.25 0"/>
<feBlend mode="normal" in2="BackgroundImageFix" result="effect1_dropShadow"/>
<feBlend mode="normal" in="SourceGraphic" in2="effect1_dropShadow" result="shape"/>
</filter>
<filter id="filter9_d" filterUnits="userSpaceOnUse" x="-436" y="636" width="294" height="267" color-interpolation-filters="sRGB">
<feFlood flood-opacity="0" result="BackgroundImageFix"/>
<feColorMatrix in="SourceAlpha" type="matrix" values="0 0 0 0 0 0 0 0 0 0 0 0 0 0 0 0 0 0 255 0"/>
<feOffset dx="0" dy="4"/>
<feGaussianBlur stdDeviation="2"/>
<feColorMatrix type="matrix" values="0 0 0 0 0 0 0 0 0 0 0 0 0 0 0 0 0 0 0.25 0"/>
<feBlend mode="normal" in2="BackgroundImageFix" result="effect1_dropShadow"/>
<feBlend mode="normal" in="SourceGraphic" in2="effect1_dropShadow" result="shape"/>
</filter>
<filter id="filter10_d" filterUnits="userSpaceOnUse" x="-352" y="636" width="126" height="29" color-interpolation-filters="sRGB">
<feFlood flood-opacity="0" result="BackgroundImageFix"/>
<feColorMatrix in="SourceAlpha" type="matrix" values="0 0 0 0 0 0 0 0 0 0 0 0 0 0 0 0 0 0 255 0"/>
<feOffset dx="0" dy="4"/>
<feGaussianBlur stdDeviation="2"/>
<feColorMatrix type="matrix" values="0 0 0 0 0 0 0 0 0 0 0 0 0 0 0 0 0 0 0.25 0"/>
<feBlend mode="normal" in2="BackgroundImageFix" result="effect1_dropShadow"/>
<feBlend mode="normal" in="SourceGraphic" in2="effect1_dropShadow" result="shape"/>
</filter>
<filter id="filter11_d" filterUnits="userSpaceOnUse" x="-351" y="874" width="126" height="29" color-interpolation-filters="sRGB">
<feFlood flood-opacity="0" result="BackgroundImageFix"/>
<feColorMatrix in="SourceAlpha" type="matrix" values="0 0 0 0 0 0 0 0 0 0 0 0 0 0 0 0 0 0 255 0"/>
<feOffset dx="0" dy="4"/>
<feGaussianBlur stdDeviation="2"/>
<feColorMatrix type="matrix" values="0 0 0 0 0 0 0 0 0 0 0 0 0 0 0 0 0 0 0.25 0"/>
<feBlend mode="normal" in2="BackgroundImageFix" result="effect1_dropShadow"/>
<feBlend mode="normal" in="SourceGraphic" in2="effect1_dropShadow" result="shape"/>
</filter>
<filter id="filter12_d" filterUnits="userSpaceOnUse" x="-417" y="686" width="119" height="98" color-interpolation-filters="sRGB">
<feFlood flood-opacity="0" result="BackgroundImageFix"/>
<feColorMatrix in="SourceAlpha" type="matrix" values="0 0 0 0 0 0 0 0 0 0 0 0 0 0 0 0 0 0 255 0"/>
<feOffset dx="0" dy="4"/>
<feGaussianBlur stdDeviation="2"/>
<feColorMatrix type="matrix" values="0 0 0 0 0 0 0 0 0 0 0 0 0 0 0 0 0 0 0.25 0"/>
<feBlend mode="normal" in2="BackgroundImageFix" result="effect1_dropShadow"/>
<feBlend mode="normal" in="SourceGraphic" in2="effect1_dropShadow" result="shape"/>
</filter>
<filter id="filter13_d" filterUnits="userSpaceOnUse" x="-274" y="666" width="61" height="72" color-interpolation-filters="sRGB">
<feFlood flood-opacity="0" result="BackgroundImageFix"/>
<feColorMatrix in="SourceAlpha" type="matrix" values="0 0 0 0 0 0 0 0 0 0 0 0 0 0 0 0 0 0 255 0"/>
<feOffset dx="0" dy="4"/>
<feGaussianBlur stdDeviation="2"/>
<feColorMatrix type="matrix" values="0 0 0 0 0 0 0 0 0 0 0 0 0 0 0 0 0 0 0.25 0"/>
<feBlend mode="normal" in2="BackgroundImageFix" result="effect1_dropShadow"/>
<feBlend mode="normal" in="SourceGraphic" in2="effect1_dropShadow" result="shape"/>
</filter>
<filter id="filter14_d" filterUnits="userSpaceOnUse" x="-296" y="777" width="99" height="69" color-interpolation-filters="sRGB">
<feFlood flood-opacity="0" result="BackgroundImageFix"/>
<feColorMatrix in="SourceAlpha" type="matrix" values="0 0 0 0 0 0 0 0 0 0 0 0 0 0 0 0 0 0 255 0"/>
<feOffset dx="0" dy="4"/>
<feGaussianBlur stdDeviation="2"/>
<feColorMatrix type="matrix" values="0 0 0 0 0 0 0 0 0 0 0 0 0 0 0 0 0 0 0.25 0"/>
<feBlend mode="normal" in2="BackgroundImageFix" result="effect1_dropShadow"/>
<feBlend mode="normal" in="SourceGraphic" in2="effect1_dropShadow" result="shape"/>
</filter>
<filter id="filter15_d" filterUnits="userSpaceOnUse" x="-245" y="776" width="55" height="71" color-interpolation-filters="sRGB">
<feFlood flood-opacity="0" result="BackgroundImageFix"/>
<feColorMatrix in="SourceAlpha" type="matrix" values="0 0 0 0 0 0 0 0 0 0 0 0 0 0 0 0 0 0 255 0"/>
<feOffset dx="0" dy="4"/>
<feGaussianBlur stdDeviation="2"/>
<feColorMatrix type="matrix" values="0 0 0 0 0 0 0 0 0 0 0 0 0 0 0 0 0 0 0.25 0"/>
<feBlend mode="normal" in2="BackgroundImageFix" result="effect1_dropShadow"/>
<feBlend mode="normal" in="SourceGraphic" in2="effect1_dropShadow" result="shape"/>
</filter>
<path id="path0_fill" d="M 115 49.5C 115 76.8381 89.2564 99 57.5 99C 25.7436 99 0 76.8381 0 49.5C 0 22.1619 25.7436 0 57.5 0C 89.2564 0 115 22.1619 115 49.5Z"/>
<path id="path1_fill" d="M 47 8.5C 47 13.1944 36.4787 17 23.5 17C 10.5213 17 0 13.1944 0 8.5C 0 3.80558 10.5213 0 23.5 0C 36.4787 0 47 3.80558 47 8.5Z"/>
<path id="path2_fill" d="M 33.8489 6.21205C 33.8489 9.64287 26.2715 12.4241 16.9244 12.4241C 7.57733 12.4241 0 9.64287 0 6.21205C 0 2.78123 7.57733 0 16.9244 0C 26.2715 0 33.8489 2.78123 33.8489 6.21205Z"/>
<path id="path3_fill" d="M 30.8509 7.87921C 30.8509 12.2308 23.9447 15.7584 15.4255 15.7584C 6.90622 15.7584 0 12.2308 0 7.87921C 0 3.52764 6.90622 0 15.4255 0C 23.9447 0 30.8509 3.52764 30.8509 7.87921Z"/>
<path id="path4_fill" d="M 6.38266 0L 7.32807 5.09456L 12.4529 4.42172L 7.91237 6.89749L 10.1343 11.5762L 6.38266 8.01177L 2.63103 11.5762L 4.85295 6.89749L 0.31239 4.42172L 5.43725 5.09456L 6.38266 0Z"/>
<path id="path5_fill" d="M 6.38266 0L 7.74075 4.52509L 12.4529 4.42172L 8.5801 7.11501L 10.1343 11.5762L 6.38266 8.71568L 2.63103 11.5762L 4.18522 7.11501L 0.31239 4.42172L 5.02457 4.52509L 6.38266 0Z"/>
<path id="path6_fill" d="M 6.38266 0L 6.99043 5.56049L 12.4529 4.42172L 7.36605 6.71952L 10.1343 11.5762L 6.38266 7.43584L 2.63103 11.5762L 5.39928 6.71952L 0.31239 4.42172L 5.7749 5.56049L 6.38266 0Z"/>
<path id="path7_fill" d="M 6.38266 0L 7.21552 5.24987L 12.4529 4.42172L 7.73026 6.83817L 10.1343 11.5762L 6.38266 7.81979L 2.63103 11.5762L 5.03506 6.83817L 0.31239 4.42172L 5.5498 5.24987L 6.38266 0Z"/>
<path id="path8_fill" d="M 6.66755 0L 7.4984 4.66704L 13.0088 3.89245L 8.01189 6.00224L 10.5866 10.1906L 6.66755 6.82744L 2.74846 10.1906L 5.32321 6.00224L 0.326333 3.89245L 5.8367 4.66704L 6.66755 0Z"/>
<path id="path9_fill" d="M 7.208 0L 8.27566 4.19736L 14.0632 3.64301L 8.93552 5.68278L 11.4448 9.53753L 7.208 6.60082L 2.97124 9.53753L 5.48049 5.68278L 0.352785 3.64301L 6.14034 4.19736L 7.208 0Z"/>
<path id="path10_fill" d="M 6.12166 0L 7.42421 4.60192L 11.9437 4.4968L 8.22924 7.23583L 9.71988 11.7728L 6.12166 8.86367L 2.52344 11.7728L 4.01408 7.23583L 0.299615 4.4968L 4.8191 4.60192L 6.12166 0Z"/>
<path id="path11_fill" d="M 7.208 0L 7.89436 4.58124L 14.0632 3.64301L 8.31855 5.53615L 11.4448 9.53753L 7.208 6.12632L 2.97124 9.53753L 6.09746 5.53615L 0.352785 3.64301L 6.52165 4.58124L 7.208 0Z"/>
<path id="path12_fill" d="M 5.9757 0L 6.75546 5.44974L 11.6589 4.59006L 7.23738 7.0985L 9.48813 12.0169L 5.9757 8.1175L 2.46327 12.0169L 4.71402 7.0985L 0.292472 4.59006L 5.19594 5.44974L 5.9757 0Z"/>
<path id="path13_fill" d="M 5.65717 0L 6.36211 5.18493L 11.0374 4.32438L 6.79779 6.66829L 8.98236 11.3214L 5.65717 7.58506L 2.33197 11.3214L 4.51655 6.66829L 0.276881 4.32438L 4.95222 5.18493L 5.65717 0Z"/>
<path id="path14_fill" d="M 644 260.5C 644 404.37 499.836 521 322 521C 144.164 521 0 404.37 0 260.5C 0 116.63 144.164 0 322 0C 499.836 0 644 116.63 644 260.5Z"/>
<path id="path15_stroke_2x" d="M 643 260.5C 643 403.63 499.492 520 322 520L 322 522C 500.18 522 645 405.11 645 260.5L 643 260.5ZM 322 520C 144.508 520 1 403.63 1 260.5L -1 260.5C -1 405.11 143.82 522 322 522L 322 520ZM 1 260.5C 1 117.37 144.508 1 322 1L 322 -1C 143.82 -1 -1 115.89 -1 260.5L 1 260.5ZM 322 1C 499.492 1 643 117.37 643 260.5L 645 260.5C 645 115.89 500.18 -1 322 -1L 322 1Z"/>
<path id="path16_fill" d="M 13.3381 0L 24.8892 28.8424L 1.78696 28.8424L 13.3381 0Z"/>
<path id="path17_fill" d="M 15.0759 0L 28.1321 25.3248L 2.01979 25.3248L 15.0759 0Z"/>
<path id="path18_fill" d="M 16.8135 0L 31.3744 34.5114L 2.25258 34.5114L 16.8135 0Z"/>
<path id="path19_fill" d="M 11.209 0L 20.9163 39.1129L 1.50172 39.1129L 11.209 0Z"/>
<path id="path20_fill" d="M 3.60289 0L 6.72309 18.9813L 0.482696 18.9813L 3.60289 0Z"/>
<path id="path21_fill" d="M 0 0L 28.8231 0L 28.8231 69.7897L 0 69.7897L 0 0Z"/>
<path id="path22_fill" d="M 0 0L 12.0096 0L 12.0096 9.20303L 0 9.20303L 0 0Z"/>
<path id="path23_fill" d="M 0 0L 21 0L 21 11L 0 11L 0 0Z"/>
<path id="path24_fill" d="M 0 0L 20 0L 20 18L 0 18L 0 0Z"/>
<path id="path25_fill" d="M 285 129C 285 200.245 221.201 258 142.5 258C 63.7994 258 0 200.245 0 129C 0 57.7553 63.7994 0 142.5 0C 221.201 0 285 57.7553 285 129Z"/>
<path id="path26_fill" d="M 0 0L 117 0L 117 10L 0 10L 0 0Z"/>
<path id="path27_fill" d="M 0 0L 85 0L 85 12L 0 12L 0 0Z"/>
<path id="path28_fill" d="M 0 0L 57 0L 57 32L 0 32L 0 0Z"/>
<path id="path29_fill" d="M 0 0L 70 0L 70 19L 0 19L 0 0Z"/>
<path id="path30_fill" d="M 0 0L 57 0L 57 20L 0 20L 0 0Z"/>
<path id="path31_fill" d="M 0 0L 11.9291 0L 11.9291 41L 0 41L 0 0Z"/>
<path id="path32_fill" d="M 0 0L 74 0L 74 32L 0 32L 0 0Z"/>
<path id="path33_fill" d="M 0 0L 89 0L 89 21L 0 21L 0 0Z"/>
<path id="path34_fill" d="M 0 0L 70 0L 70 16L 0 16L 0 0Z"/>
<path id="path35_fill" d="M 0 0L 26.0782 0L 26.0782 18.814L 0 18.814L 0 0Z"/>
<path id="path36_fill" d="M 0 0L 32.0259 0L 32.0259 11.1708L 0 11.1708L 0 0Z"/>
<path id="path37_fill" d="M 0 0L 32.5847 0L 32.5847 11.0511L 0 11.0511L 0 0Z"/>
<path id="path38_fill" d="M 0 0L 26.0782 0L 26.0782 11.7588L 0 11.7588L 0 0Z"/>
<path id="path39_fill" d="M 0 0L 6.99364 0L 6.99364 18.8458L 0 18.8458L 0 0Z"/>
<path id="path40_fill" d="M 0 0L 33.9913 0L 33.9913 18.7683L 0 18.7683L 0 0Z"/>
<path id="path41_fill" d="M 0 0L 40.7186 0L 40.7186 12.3467L 0 12.3467L 0 0Z"/>
<path id="path42_fill" d="M 0 0L 32.4011 0L 32.4011 9.33963L 0 9.33963L 0 0Z"/>
<path id="path43_fill" d="M 0 0L 51.0868 0L 51.0868 10.2027L 0 10.2027L 0 0Z"/>
<path id="path44_fill" d="M 0 0L 62.7381 0L 62.7381 6.05783L 0 6.05783L 0 0Z"/>
<path id="path45_fill" d="M 0 0L 61.2395 0L 61.2395 7.09826L 0 7.09826L 0 0Z"/>
<path id="path46_fill" d="M 0 0L 51.0868 0L 51.0868 6.37666L 0 6.37666L 0 0Z"/>
<path id="path47_fill" d="M 0 0L 3.98792 0L 3.98792 36.5148L 0 36.5148L 0 0Z"/>
<path id="path48_fill" d="M 0 0L 65.9659 0L 65.9659 10.6269L 0 10.6269L 0 0Z"/>
<path id="path49_fill" d="M 0 0L 79.7671 0L 79.7671 6.6955L 0 6.6955L 0 0Z"/>
<path id="path50_fill" d="M 0 0L 61.7388 0L 61.7388 5.70289L 0 5.70289L 0 0Z"/>
<path id="path51_fill" d="M 0 0L 22.2423 0L 22.2423 19.1418L 0 19.1418L 0 0Z"/>
<path id="path52_fill" d="M 0 0L 27.3151 0L 27.3151 11.3655L 0 11.3655L 0 0Z"/>
<path id="path53_fill" d="M 0 0L 28.2939 0L 28.2939 11.1877L 0 11.1877L 0 0Z"/>
<path id="path54_fill" d="M 0 0L 22.2423 0L 22.2423 11.9636L 0 11.9636L 0 0Z"/>
<path id="path55_fill" d="M 0 0L 7.10621 0L 7.10621 16.1536L 0 16.1536L 0 0Z"/>
<path id="path56_fill" d="M 0 0L 29.1147 0L 29.1147 19.0741L 0 19.0741L 0 0Z"/>
<path id="path57_fill" d="M 0 0L 34.7292 0L 34.7292 12.5618L 0 12.5618L 0 0Z"/>
<path id="path58_fill" d="M 0 0L 27.9743 0L 27.9743 9.47092L 0 9.47092L 0 0Z"/>
<path id="path59_fill" d="M 0 0L 29 0L 29 12L 0 12L 0 0Z"/>
<path id="path60_fill" d="M 0 0L 38 0L 38 16L 0 16L 0 0Z"/>
</defs>
</svg>
